<svg version="1.1" id="Layer_1" xmlns="http://www.w3.org/2000/svg" xmlns:xlink="http://www.w3.org/1999/xlink" x="0px" y="0px"
	 width="100%" viewBox="0 0 1024 1024" enable-background="new 0 0 1024 1024" xml:space="preserve">
<path fill="#000000" opacity="1.000000" stroke="none" 
	d="
M927.144287,569.768555 
	C929.601807,594.065857 925.486145,617.374939 921.770813,640.735718 
	C919.389771,655.706726 917.165283,670.674133 913.121948,685.340759 
	C909.648621,697.939453 903.506836,708.870972 895.602295,719.216370 
	C891.191284,724.989563 884.682495,727.883484 880.111084,732.790161 
	C872.909546,740.520020 863.807251,746.387024 859.331604,757.108521 
	C855.649231,765.929932 848.755981,773.495178 842.480164,781.030701 
	C841.522583,782.180481 840.145569,783.089417 839.506531,784.379272 
	C832.610840,798.297302 820.473267,808.724426 813.920593,822.872803 
	C813.243652,824.334351 812.070007,825.734985 810.786499,826.720825 
	C796.432434,837.745911 783.165466,850.821472 765.574585,856.441833 
	C753.352356,860.347046 743.503235,866.959961 734.553711,875.617920 
	C730.710754,879.335571 726.520935,882.657349 721.618835,884.883545 
	C714.537109,888.099609 710.188416,894.746826 703.434021,898.611511 
	C683.492737,910.021301 662.143372,916.904236 639.530701,919.744263 
	C627.546326,921.249512 616.044067,924.008789 604.590820,927.767273 
	C585.295593,934.099182 565.320923,935.817749 545.018738,936.340881 
	C524.710815,936.864136 504.415558,937.031494 484.128540,936.652588 
	C474.542999,936.473633 465.162415,934.529846 455.835754,931.286926 
	C442.049255,926.493286 427.725494,923.189026 412.890686,922.944702 
	C398.777100,922.712280 384.503265,923.875977 370.683716,920.026855 
	C355.780518,915.875854 340.939850,911.473022 326.195374,906.791138 
	C318.623413,904.386658 313.148315,898.347778 306.667877,894.041687 
	C298.076813,888.332947 289.523773,882.505005 279.396637,879.889282 
	C272.384644,878.078186 265.868011,875.073181 259.505341,871.889099 
	C246.165207,865.213318 231.876740,860.340454 220.235245,850.356506 
	C214.017273,845.023865 209.284134,838.543518 205.007538,831.959717 
	C197.521988,820.435852 189.438828,808.306335 187.886139,794.732056 
	C186.709763,784.447693 181.900436,778.660522 175.183929,772.567383 
	C161.249680,759.926270 148.587967,746.009888 135.816376,732.216431 
	C129.896469,725.822876 127.621254,717.452698 123.798920,709.918762 
	C116.672668,695.872681 115.735619,680.429321 114.287857,665.260193 
	C112.565178,647.210510 111.618401,629.056030 111.143303,610.925781 
	C110.549820,588.277588 112.949265,565.695007 113.786980,543.072632 
	C114.281456,529.719727 113.132767,516.447327 112.541054,503.140656 
	C111.826836,487.078918 108.397728,471.519897 105.094986,455.853638 
	C102.418823,443.159454 101.861084,430.235748 105.408928,417.258301 
	C107.495453,409.626129 108.123703,401.506256 108.652031,393.555542 
	C109.767143,376.774353 115.587891,361.045563 118.883781,344.762421 
	C120.826225,335.165863 124.095955,325.951447 125.660172,316.174286 
	C127.134842,306.956818 130.955185,298.340637 137.309998,290.371521 
	C145.963531,279.519775 158.299881,273.768280 167.878433,264.351929 
	C179.245468,253.177444 192.389328,243.716187 197.136597,227.379837 
	C197.905304,224.734543 200.286453,223.103607 202.012680,221.113266 
	C206.914413,215.461578 212.041763,210.005905 217.061661,204.456207 
	C220.989929,200.113327 226.816208,198.901306 231.554703,195.845032 
	C234.640152,193.854935 237.673660,191.983109 240.198441,189.339188 
	C244.892700,184.423447 250.295212,181.261536 257.109283,179.523102 
	C263.464752,177.901657 269.431976,173.844406 273.376678,168.629730 
	C279.547302,160.472488 288.430847,156.265625 296.275970,150.531967 
	C300.312988,147.581528 304.488190,144.742508 309.271973,143.164047 
	C314.267822,141.515594 316.814087,136.729416 321.298096,134.392212 
	C328.234528,130.776703 335.875458,131.190826 343.223328,130.308731 
	C348.029327,129.731766 352.207703,128.161179 355.222443,124.914566 
	C363.354370,116.157249 373.566254,113.404732 384.941681,113.075447 
	C389.091034,112.955338 393.335144,112.857208 397.351074,111.939644 
	C414.535339,108.013382 432.195282,109.543785 449.488525,107.101463 
	C464.971313,104.914833 480.521393,103.337631 495.929718,100.414093 
	C505.393311,98.618507 515.132385,101.435257 524.727783,102.338394 
	C535.858887,103.386078 546.639771,106.505974 557.608093,108.542755 
	C562.699219,109.488159 567.590576,111.207695 571.749695,114.526619 
	C575.391357,117.432693 579.859985,118.468391 584.207825,119.458099 
	C601.570740,123.410378 618.971497,127.131393 636.505310,130.353714 
	C652.151550,133.229111 667.662781,137.003418 682.178650,144.403412 
	C709.330627,158.245071 736.773010,171.537354 764.342041,184.533295 
	C783.248901,193.445923 799.029785,206.020325 812.676331,221.684799 
	C821.855530,232.221436 831.808167,242.086868 840.928223,252.671768 
	C847.546082,260.352509 853.342651,268.738708 859.549805,276.776123 
	C867.286804,286.794586 874.960266,296.865662 882.896729,306.724335 
	C885.375732,309.803802 888.660034,312.226257 891.491516,315.034363 
	C892.782715,316.314972 894.462891,317.622803 894.946533,319.226013 
	C897.091248,326.335327 902.378845,329.996246 908.326050,333.795044 
	C915.771301,338.550720 918.073364,347.071808 919.841858,355.200409 
	C920.899963,360.063843 921.476135,364.989197 923.221008,369.732971 
	C925.818359,376.794464 927.297974,384.040070 927.149963,391.717133 
	C926.799866,409.874084 928.681274,427.949402 929.767273,446.054291 
	C930.666565,461.047058 930.007629,476.037323 928.591858,490.967773 
	C927.786011,499.465485 928.016235,507.949432 928.050842,516.434082 
	C928.093750,526.948975 926.901917,537.380127 926.484253,547.853394 
	C926.200073,554.980347 926.880920,562.145874 927.144287,569.768555 
M304.697144,687.829407 
	C322.620972,708.708252 343.227417,726.478394 366.417419,741.288879 
	C407.616882,767.601379 452.780060,781.342529 501.467651,783.554749 
	C522.965149,784.531555 544.319336,782.614258 565.502075,778.699402 
	C618.727783,768.862488 665.329468,745.434998 703.883362,707.750000 
	C747.188721,665.420532 773.843689,614.012085 781.895264,553.416626 
	C785.607849,525.475586 785.557495,497.601074 780.659119,469.961853 
	C769.452820,406.729340 738.933960,353.979340 690.117310,312.638519 
	C641.403320,271.384644 584.027954,251.472397 520.379700,249.440674 
	C499.185211,248.764145 478.116791,250.886993 457.365509,254.787323 
	C396.071777,266.307800 344.672028,295.518707 304.649994,343.523254 
	C265.252472,390.778687 242.950943,444.864319 242.073334,507.044220 
	C241.755524,529.561462 242.949081,551.954773 247.851242,573.957458 
	C257.293335,616.336975 276.158600,654.126221 304.697144,687.829407 
M788.833801,671.495239 
	C788.154480,674.405518 787.647644,677.336731 788.222656,680.323364 
	C788.521362,681.874939 789.334778,683.130920 790.991882,683.463623 
	C792.740234,683.814575 793.921265,682.778564 794.505859,681.340576 
	C796.590149,676.213684 797.630920,670.829102 796.761841,665.352722 
	C796.269897,662.252991 794.090210,661.718994 791.732422,663.914124 
	C789.812256,665.701904 789.428772,668.227844 788.833801,671.495239 
z"/>
<path fill="#000000" opacity="1.000000" stroke="none" 
	d="
M589.626709,749.808350 
	C561.533936,758.723816 533.065063,762.443115 504.105377,761.153198 
	C435.814545,758.111633 377.733307,732.029358 330.394043,682.562927 
	C297.382324,648.067871 276.849945,607.038330 267.941101,560.273804 
	C264.390869,541.637939 262.752106,522.696045 263.735687,503.685181 
	C265.826202,463.280792 276.801697,425.526825 297.674377,390.694702 
	C329.246796,338.006927 374.307861,302.327057 432.634064,283.461060 
	C450.685242,277.622314 469.322784,274.366058 488.250214,272.543549 
	C525.893311,268.918915 562.813782,272.455048 598.231995,285.576355 
	C682.438843,316.772369 735.698914,376.283936 756.818298,463.642761 
	C763.054749,489.439362 763.349304,515.920715 760.542297,542.466309 
	C756.368347,581.939026 744.300903,618.650085 722.086731,651.466736 
	C689.610046,699.444092 645.442017,732.280823 589.626709,749.808350 
M340.406250,626.079224 
	C347.465515,630.656372 355.123138,633.894226 363.315521,635.675842 
	C367.360138,636.555481 369.806183,638.440552 371.823700,642.243225 
	C386.366882,669.654480 419.868530,685.735962 450.135529,680.709717 
	C475.153473,676.555176 492.259705,652.520874 492.059540,631.394470 
	C491.314301,552.748657 491.680115,474.092224 491.666168,395.439789 
	C491.665344,390.746857 491.188141,386.099609 490.073944,381.596924 
	C484.483276,359.003662 463.073059,342.680145 433.517853,347.950378 
	C417.606750,350.787628 405.002014,359.526886 394.581970,371.583618 
	C392.049255,374.514099 389.227692,376.074402 385.234863,376.502472 
	C374.426910,377.661194 364.636780,381.566193 356.174683,388.597778 
	C342.029907,400.351349 334.773438,415.899628 331.395660,433.537170 
	C330.581116,437.790253 328.911285,440.991913 325.507202,443.978668 
	C306.216797,460.904327 296.343292,482.549286 295.465057,508.054657 
	C295.004669,521.425354 299.017975,534.037964 305.113434,545.851624 
	C307.578247,550.628723 308.387146,555.324768 308.248932,560.661560 
	C307.548676,587.700928 316.250916,610.333862 340.406250,626.079224 
M691.466492,571.690613 
	C693.966003,571.673706 696.465942,571.682007 698.964905,571.635315 
	C707.573486,571.474426 711.638000,567.305359 711.647034,558.592407 
	C711.667603,538.764709 711.676941,518.937012 711.673584,499.109314 
	C711.671936,489.403625 710.585388,488.454956 700.651978,488.355988 
	C645.006592,487.801575 589.373962,489.208282 533.733521,489.386230 
	C531.567444,489.393158 529.401184,489.379578 527.235413,489.407318 
	C518.777100,489.515686 516.153320,492.713440 517.705505,500.997040 
	C517.919678,502.139862 518.143616,503.281555 518.323425,504.429993 
	C518.950073,508.433258 521.055664,510.688690 525.325500,510.673553 
	C542.820007,510.611542 560.331116,511.069305 577.805969,510.464569 
	C613.621094,509.225098 649.437988,509.962189 685.251831,509.616821 
	C689.221741,509.578583 690.443298,511.197906 690.396667,514.993469 
	C690.269592,525.321289 690.327515,535.654785 690.534607,545.981506 
	C690.603760,549.428894 689.114624,550.867188 685.928589,551.031555 
	C684.432007,551.108704 682.932373,551.162903 681.434082,551.163330 
	C635.780518,551.177063 590.126892,551.185242 544.473328,551.187073 
	C537.975281,551.187317 531.477173,551.146973 524.979126,551.133911 
	C522.738525,551.129395 520.296997,551.329712 519.393066,553.629028 
	C517.443787,558.587402 517.665405,563.784546 519.442932,568.700806 
	C521.000183,573.007751 525.158142,572.065857 528.524231,572.060608 
	C582.508606,571.976746 636.492859,571.827209 691.466492,571.690613 
M590.499939,626.644409 
	C628.466309,626.406128 666.432739,626.170776 704.399048,625.917053 
	C705.724243,625.908203 707.070557,625.830078 708.367188,625.578674 
	C709.941284,625.273376 711.005920,624.263306 711.501831,622.689148 
	C715.172974,611.035767 710.929199,604.870361 698.937439,605.074036 
	C651.313538,605.882629 603.678406,604.772827 556.057007,605.998596 
	C545.736267,606.264221 535.405151,606.249878 525.080200,606.174194 
	C520.360657,606.139587 518.430908,608.485901 518.341370,612.868774 
	C518.303955,614.699768 518.280640,616.536499 518.378662,618.363770 
	C518.716187,624.656128 520.772095,626.628906 527.042664,626.634155 
	C547.861755,626.651611 568.680786,626.642639 590.499939,626.644409 
M577.492615,682.050415 
	C584.650574,682.200317 591.819702,682.677673 598.964355,682.435486 
	C616.619324,681.837097 634.268372,681.635864 651.909119,682.544495 
	C663.730286,683.153320 665.712769,681.476746 665.735535,669.771240 
	C665.750916,661.858948 664.365723,660.378418 656.523804,660.374878 
	C613.537842,660.355713 570.551819,660.362854 527.565857,660.383728 
	C520.253967,660.387268 517.443970,662.827637 517.408264,669.011963 
	C517.353394,678.512146 520.548462,682.570190 528.032349,682.500549 
	C544.186584,682.350342 560.340820,682.198608 577.492615,682.050415 
M597.835999,380.725433 
	C596.617004,389.490723 597.211914,398.308044 597.557251,407.069458 
	C597.706177,410.848297 600.037415,414.734955 604.379822,415.271729 
	C608.332458,415.760345 609.815918,412.043335 611.380554,409.154877 
	C612.594421,406.913940 612.785889,404.445221 612.440002,401.884338 
	C611.770081,396.924622 611.623108,391.916046 612.337341,386.967041 
	C612.890137,383.136505 612.430725,379.739807 608.654541,378.103485 
	C604.974854,376.508942 601.174316,376.486176 597.835999,380.725433 
M648.672363,411.163849 
	C644.518372,415.219360 640.239868,419.156952 636.251709,423.369446 
	C633.308350,426.478302 633.388184,430.008362 636.302979,433.173798 
	C639.271667,436.397827 642.784180,436.679443 645.961365,433.685089 
	C651.994690,427.998993 657.887268,422.154877 663.651550,416.195770 
	C666.482300,413.269257 666.465820,409.937195 663.590332,406.876801 
	C660.777710,403.883209 657.533447,403.497620 654.238647,405.904266 
	C652.382141,407.260315 650.847595,409.057220 648.672363,411.163849 
M555.637390,406.763031 
	C551.236023,403.628876 547.611145,403.713715 544.573975,407.021973 
	C541.740967,410.107819 542.119629,413.597717 545.987549,417.512726 
	C551.019409,422.605896 556.203308,427.548584 561.286804,432.591309 
	C565.078735,436.352905 568.402588,436.683472 571.654785,433.530945 
	C575.580994,429.725067 575.525391,426.532379 571.396118,422.401917 
	C566.334045,417.338379 561.239868,412.306793 555.637390,406.763031 
M597.537903,455.781067 
	C598.234741,456.691650 598.794189,457.768433 599.655273,458.480347 
	C601.872681,460.313812 604.326538,461.176788 606.828857,458.988800 
	C608.821289,457.246613 611.159424,455.303894 610.024292,452.354523 
	C608.941650,449.541687 606.477112,448.074280 603.259583,448.277618 
	C598.989563,448.547455 596.839722,450.612305 597.537903,455.781067 
z"/>
<path fill="#000000" opacity="1.000000" stroke="none" 
	d="
M446.191528,659.725220 
	C421.679749,663.481995 398.000427,650.681946 388.820923,627.987061 
	C385.674500,620.208008 381.158173,617.328430 373.156586,616.192993 
	C340.827393,611.605469 325.499847,584.949646 329.184967,555.625183 
	C329.979401,549.303284 329.372620,544.063110 325.576080,538.368469 
	C310.059082,515.093872 313.958679,477.924988 340.705170,459.163269 
	C348.882416,453.427185 351.561920,447.603424 352.039886,437.763275 
	C353.168976,414.517395 371.979401,395.637482 393.889374,396.671967 
	C399.637177,396.943359 403.441345,394.424500 406.687469,389.684998 
	C416.072479,375.982544 428.826721,367.704193 445.902557,367.702393 
	C459.078888,367.700989 469.400879,377.584717 470.303009,390.743225 
	C470.781036,397.715942 471.175781,404.711273 471.182007,411.696777 
	C471.246704,484.180359 471.235626,556.664001 471.218079,629.147644 
	C471.214172,645.375427 462.471497,656.127197 446.191528,659.725220 
M439.521820,584.694336 
	C438.034698,584.560791 436.548035,584.421997 435.060394,584.294556 
	C425.149567,583.445251 420.793518,578.784607 420.662384,568.854370 
	C420.633820,566.689758 420.706390,564.523926 420.679749,562.359253 
	C420.617584,557.311035 418.529510,554.902161 413.773376,554.334534 
	C407.443634,553.579041 403.977203,555.229492 403.190857,560.486328 
	C400.198883,580.488403 408.495209,600.753174 435.299957,602.606995 
	C439.160889,602.874023 442.748352,602.303650 444.298431,598.033508 
	C446.149872,592.933228 444.508118,587.815674 439.521820,584.694336 
M377.398163,510.888550 
	C366.808868,516.098328 359.532776,524.008728 357.085785,535.842407 
	C355.988373,541.149414 358.556763,545.769226 363.082642,546.678406 
	C368.634521,547.793762 372.593109,545.433228 373.716309,539.801331 
	C375.020660,533.261108 378.769165,529.023926 384.923798,526.951416 
	C389.510773,525.406799 394.307953,524.700867 399.164154,524.999695 
	C405.006927,525.359314 408.004822,523.038452 408.587646,517.441345 
	C409.159729,511.947296 406.003235,507.806976 400.576874,507.414856 
	C392.881531,506.858765 385.267395,507.266724 377.398163,510.888550 
M406.912323,470.595581 
	C411.346130,474.211823 416.155518,477.067230 421.829163,478.332123 
	C425.628723,479.179199 428.379578,477.734894 430.319580,474.633545 
	C433.738037,469.168732 431.354828,463.305054 424.985291,461.239197 
	C415.005219,458.002319 411.345093,451.643494 413.539337,441.331360 
	C413.815460,440.033691 414.177490,438.754272 414.451660,437.456238 
	C415.476013,432.605530 413.468384,428.917725 409.115631,427.613708 
	C403.743500,426.004395 399.044373,427.792236 397.579865,432.549469 
	C394.130798,443.753296 394.954285,461.470337 406.912323,470.595581 
z"/>
</svg>